<svg width="20" height="20" viewBox="0 0 20 20" fill="none" xmlns="http://www.w3.org/2000/svg">
<rect width="20" height="20" rx="10" fill="#EC612D"/>
<path d="M8.36798 15.1742C8.10464 14.1523 7.90367 13.1236 7.76507 12.0882C7.62647 11.0394 7.50173 9.31817 7.39085 6.92466C7.39085 6.7633 7.44629 6.62211 7.55717 6.50109C7.68191 6.38007 7.82051 6.31956 7.97297 6.31956H8.16008C8.22938 6.7633 8.27789 7.47597 8.30561 8.45758C8.30561 8.56516 8.31947 8.92822 8.34719 9.54677C8.37491 10.1519 8.44421 10.7234 8.55509 11.2612C10.1629 11.1133 11.4449 10.8108 12.4012 10.3536C13.3714 9.89638 13.8565 9.24422 13.8565 8.39707C13.8565 7.33478 13.3714 6.46747 12.4012 5.79514C11.431 5.1228 9.96882 4.78663 8.01455 4.78663C7.19681 4.78663 6.50381 4.93455 5.93555 5.23037C5.83853 5.27071 5.76923 5.35812 5.72765 5.49258C5.68607 5.6136 5.65142 5.78841 5.6237 6.01701C5.59598 6.25905 5.56133 6.44058 5.51975 6.5616C5.47817 6.68262 5.40194 6.74313 5.29106 6.74313C5.16632 6.74313 5.08316 6.65572 5.04158 6.48092C5.01386 6.29266 5 5.86909 5 5.2102C5 4.8337 5.26334 4.53787 5.79002 4.32272C6.3167 4.10757 6.99584 4 7.82744 4C10.2529 4 12.0547 4.36978 13.2328 5.10935C14.4109 5.84892 15 6.98517 15 8.51809C15 9.33834 14.6604 10.0241 13.9813 10.5754C13.3021 11.1268 12.4775 11.5369 11.5073 11.8058C10.5371 12.0613 9.60845 12.189 8.72141 12.189C8.74913 12.3504 8.77685 12.4983 8.80457 12.6328C8.83229 12.7673 8.85308 12.8816 8.86694 12.9757C9.06098 13.8901 9.158 14.596 9.158 15.0935C9.158 15.3894 9.11642 15.6247 9.03326 15.7995C8.96396 15.9743 8.80457 16.0348 8.55509 15.981L8.36798 15.1742Z" fill="white"/>
</svg>
